<svg xmlns="http://www.w3.org/2000/svg" viewBox="0 0 24 24" fill="currentColor"><path d="M21 7c0-1.1-.9-2-2-2-.28 0-.55.06-.79.18C17.93 3.95 16.84 3 15.5 3c-.62 0-1.19.21-1.65.56C13.46 2.63 12.53 2 11.5 2 10.53 2 9.68 2.57 9.25 3.38 9.05 3.15 8.68 3 8.5 3 7.67 3 7 3.67 7 4.5V12l-1.75-1.75A1.76 1.76 0 003.5 9.5c-.98 0-1.5.85-1.5 1.51V11c0 .32.08.64.23.92L6.5 19.5C7.35 21 8.96 22 10.74 22H17c2.21 0 4-1.79 4-4V7zM19 18c0 1.1-.9 2-2 2h-6.26c-1.07 0-2.04-.6-2.52-1.55L4.16 11.3V11c0-.15.07-.2.12-.24.07-.04.14-.04.2.01L8 14.29V4.5c0-.14.09-.3.28-.37.19-.07.34.05.41.13l.31.32V10h2V3.5c0-.28.22-.5.5-.5s.5.22.5.5V10h2V4.5c0-.28.22-.5.5-.5s.5.22.5.5V10h2V7c0-.28.22-.5.5-.5s.5.22.5.5v11z"/></svg>
