<svg xmlns="http://www.w3.org/2000/svg" viewBox="96 354 338 374" fill="currentColor">
  <path d="M105.97,489.32c0.16-5.21,2.93-11.81,8.36-17.24c33.26-33.18,66.56-66.33,99.8-99.53c6.92-6.91,15.08-10.45,24.83-9.06c11.55,1.65,19.62,8.12,23.38,19.22c3.77,11.12,1.16,21.14-7.02,29.43c-15.91,16.14-31.97,32.12-48.04,48.1c-17.48,17.38-34.98,34.74-52.58,52c-8.93,8.76-20.84,10.92-31.8,6.13C112.3,513.73,105.78,503.52,105.97,489.32z"/>
  <path d="M128.81,527.07c3.79-0.17,6.91-0.08,9.97-0.49c8.02-1.06,14.88-4.54,20.56-10.34c6.38-6.52,12.79-13,19.33-19.66c1.23,1.09,1.98,1.7,2.66,2.38c24.61,24.6,49.24,49.19,73.81,73.83c8.07,8.1,10.9,17.87,7.66,28.86c-3.12,10.58-10.39,17.35-21.17,19.77c-9.33,2.1-18.23,0.31-25.07-6.47C187.38,586.02,158.45,556.8,128.81,527.07z"/>
  <path d="M401.7,562.4c-15.03-1.53-25.7,4.26-34.72,14.22c-4.89,5.4-10.23,10.39-15.51,15.69c-1.1-0.98-1.86-1.59-2.56-2.28c-24.63-24.62-49.29-49.21-73.86-73.89c-8.07-8.1-10.89-17.89-7.56-28.89c3.19-10.56,10.47-17.31,21.28-19.68c9.56-2.1,18.45,0,25.44,6.92c28.65,28.38,57.1,56.96,85.61,85.47C400.25,560.39,400.57,560.92,401.7,562.4z"/>
  <path d="M424.3,594.33c0.03,10.31-2.8,17.06-8.37,22.62c-33.38,33.3-66.75,66.6-100.19,99.85c-11.62,11.55-28.55,12.12-40.06,1.56c-12.12-11.13-12.6-29.39-0.75-41.47c15.05-15.34,30.32-30.47,45.56-45.63c18.31-18.2,36.65-36.36,55.06-54.45c8.91-8.75,20.84-11.07,31.77-6.1C418.43,575.74,423.92,584.63,424.3,594.33z"/>
</svg>
